{"title":"Resident Evil: Retribution - 2012 (No Cinavia) 1080p AAC","uid":11091962,"size":1615034341,"categoryP":"video","categoryS":"hd___movies","magnet":"?xt=urn:btih:fc41680d721d887d2ebaccbdb2522b3fab566577&amp;dn=Resident+Evil%3A+Retribution+-+2012+%28No+Cinavia%29+1080p+AAC&amp;tr=udp%3A%2F%2Ftracker.openbittorrent.com%3A80&amp;tr=udp%3A%2F%2Fopen.demonii.com%3A1337&amp;tr=udp%3A%2F%2Ftracker.coppersurfer.tk%3A6969&amp;tr=udp%3A%2F%2Fexodus.desync.com%3A6969","seeders":0,"leechers":0,"uploader":"AlienMethod","files":-1,"time":1411535091,"description":"1080p MP4/x264\nAAC2.0 (2-Channel Audio)\nCinavia Removed/CinEx HD (ps3-Friendly)\n(Processed from Yify Encode)\n\n&quot;Alice fights alongside a resistance movement in the continuing battle against the Umbrella Corporation and the undead.&quot;\n\nGeneral\nFormat : MPEG-4\nFormat profile : Base Media\nCodec ID : isom\nFile size : 1.50 GiB\nDuration : 1h 35mn\nOverall bit rate mode : Variable\nOverall bit rate : 2 252 Kbps\nWriting application : Lavf55.33.100\n\nVideo\nID : 1\nFormat : AVC\nFormat/Info : Advanced Video Codec\nFormat profile : &lt;a class=&quot;__cf_email__&quot; href=&quot;/cdn-cgi/l/email-protection&quot; data-cfemail=&quot;3971505e5179750d1709&quot;&gt;[email&amp;#160;protected]&lt;/a&gt;&lt;script data-cfhash='f9e31' type=&quot;text/javascript&quot;&gt;\n/* &lt;![CDATA[ */!function(){try{var t=&quot;currentScript&quot;in document?document.currentScript:function(){for(var t=document.getElementsByTagName(&quot;script&quot;),e=t.length;e--;)if(t[e].getAttribute(&quot;data-cfhash&quot;))return t[e]}();if(t&amp;&amp;t.previousSibling){var e,r,n,i,c=t.previousSibling,a=c.getAttribute(&quot;data-cfemail&quot;);if(a){for(e=&quot;&quot;,r=parseInt(a.substr(0,2),16),n=2;a.length-n;n+=2)i=parseInt(a.substr(n,2),16)^r,e+=String.fromCharCode(i);e=document.createTextNode(e),c.parentNode.replaceChild(e,c)}t.parentNode.removeChild(t);}}catch(u){}}()/* ]]&gt; */&lt;/script&gt;\nFormat settings, CABAC : Yes\nFormat settings, ReFrames : 4 frames\nCodec ID : avc1\nCodec ID/Info : Advanced Video Coding\nDuration : 1h 35mn\nBit rate : 2 152 Kbps\nWidth : 1 920 pixels\nHeight : 800 pixels\nDisplay aspect ratio : 2.40:1\nFrame rate mode : Constant\nFrame rate : 23.976 fps\nColor space : YUV\nChroma subsampling : 4:2:0\nBit depth : 8 bits\nScan type : Progressive\nBits/(Pixel*Frame) : 0.058\nStream size : 1.44 GiB (96%)\nWriting library : x264 core 125 r2200 999b753\n\nAudio\nID : 2\nFormat : AAC\nFormat/Info : Advanced Audio Codec\nFormat profile : LC\nCodec ID : 40\nDuration : 1h 35mn\nBit rate mode : Variable\nBit rate : 96.0 Kbps\nMaximum bit rate : 384 Kbps\nChannel(s) : 2 channels\nChannel positions : Front: L R\nSampling rate : 48.0 KHz\nCompression mode : Lossy\nStream size : 65.5 MiB (4%)\n\nm/ AM m/ ","torrent":{"xt":"urn:btih:fc41680d721d887d2ebaccbdb2522b3fab566577","amp;dn":"Resident+Evil%3A+Retribution+-+2012+%28No+Cinavia%29+1080p+AAC","amp;tr":["udp%3A%2F%2Ftracker.openbittorrent.com%3A80","udp%3A%2F%2Fopen.demonii.com%3A1337","udp%3A%2F%2Ftracker.coppersurfer.tk%3A6969","udp%3A%2F%2Fexodus.desync.com%3A6969"],"infoHash":"fc41680d721d887d2ebaccbdb2522b3fab566577","infoHashBuffer":{"type":"Buffer","data":[252,65,104,13,114,29,136,125,46,186,204,189,178,82,43,63,171,86,101,119]},"announce":[],"urlList":[]}}